<?xml version="1.0" encoding="UTF-8" standalone="no"?>
<svg
   width="48"
   height="48"
   viewBox="0 0 256 256"
   fill="none"
   version="1.1"
   id="svg10"
   xml:space="preserve"
   xmlns:xlink="http://www.w3.org/1999/xlink"
   xmlns="http://www.w3.org/2000/svg"
   xmlns:svg="http://www.w3.org/2000/svg"><defs
     id="defs10"><linearGradient
       id="linearGradient16"><stop
         style="stop-color:#e5e5e5;stop-opacity:1;"
         offset="0"
         id="stop16" /><stop
         style="stop-color:#f2f2f2;stop-opacity:1;"
         offset="1"
         id="stop17" /></linearGradient><linearGradient
       id="linearGradient10"><stop
         style="stop-color:#c0c0c0;stop-opacity:1;"
         offset="0"
         id="stop10" /><stop
         style="stop-color:#c0c0c0;stop-opacity:1;"
         offset="0.08"
         id="stop12" /><stop
         style="stop-color:#d0d0d0;stop-opacity:1;"
         offset="0.28"
         id="stop13" /><stop
         style="stop-color:#d0d0d0;stop-opacity:1;"
         offset="0.73000002"
         id="stop14" /><stop
         style="stop-color:#f6f6f6;stop-opacity:1;"
         offset="0.94999999"
         id="stop15" /><stop
         style="stop-color:#f6f6f6;stop-opacity:1;"
         offset="1"
         id="stop11" /></linearGradient><linearGradient
       xlink:href="#linearGradient10"
       id="linearGradient12"
       x1="128"
       y1="256"
       x2="128"
       y2="0"
       gradientUnits="userSpaceOnUse" /><radialGradient
       xlink:href="#linearGradient16"
       id="radialGradient17"
       cx="127.99998"
       cy="10.666669"
       fx="127.99998"
       fy="10.666669"
       r="112"
       gradientTransform="matrix(-0.03963669,1.9999942,-0.99980367,-0.01981442,143.73807,-245.1212)"
       gradientUnits="userSpaceOnUse" /></defs><path
     id="rect2"
     style="color:#000000;fill:url(#linearGradient12);-inkscape-stroke:none;opacity:1;fill-opacity:1"
     d="M 60 0 C 26.760033 0 0 26.760033 0 60 L 0 65.666667 L 0 190.33333 L 0 196 C 0 229.23997 26.760033 256 60 256 L 65.666667 256 L 190.33333 256 L 196 256 C 229.23997 256 256 229.23997 256 196 L 256 190.33333 L 256 65.666667 L 256 60 C 256 26.760033 229.23997 0 196 0 L 190.33333 0 L 65.666667 0 L 60 0 z " /><path
     id="path15"
     style="display:inline;opacity:1;fill:url(#radialGradient17);fill-opacity:1;stroke:none;stroke-width:21.3333;stroke-dasharray:none;paint-order:normal"
     d="M 74.166667,10.666667 C 42.127047,10.666667 16,36.793714 16,68.833333 V 173.95833 176.5 v 8.32292 a 49.847847,49.847847 0 0 0 31.833333,46.16666 c 1.832084,0.79185 3.731395,1.45617 5.6875,2 a 49.847847,49.847847 0 0 0 2.072917,0.52084 c 3.234131,0.73382 6.594918,1.15625 10.072917,1.15625 h 0.177083 8.322917 107.666663 8.32292 0.17708 c 3.47801,0 6.83878,-0.42243 10.07292,-1.15625 a 49.847847,49.847847 0 0 0 2.07292,-0.52084 c 1.95608,-0.54383 3.85541,-1.20815 5.6875,-2 A 49.847847,49.847847 0 0 0 240,184.82292 V 176.5 68.833333 C 240,36.793714 213.87297,10.666667 181.83333,10.666667 Z" /><path
     id="rect10"
     style="display:inline;fill:#000000;stroke-width:7.7093;stroke-dasharray:7.7093, 46.2557"
     d="M 71.75,149.70833 51.541667,203.4375 h 7.5 l 5.604166,-15.64583 H 86.197917 L 91.5,203.4375 h 7.9375 L 79.979167,149.70833 Z m 89.92708,0.0937 v 53.71875 h 7.23959 v -18.84375 l 8.45833,-8.08333 18.77083,26.92708 h 9.4375 L 182.60417,171.5 l 22.375,-21.69792 h -10.02084 l -26.04166,26.03125 v -26.03125 z m -54.96875,0.28125 v 53.72917 h 7.27084 v -25.07292 h 28.04166 v 25.07292 h 7.27084 v -53.72917 h -7.27084 V 172.3125 H 113.97917 V 150.08333 Z M 75.5,157.72917 h 0.145833 L 83.5625,181.38542 H 66.895833 Z" /></svg>
