<svg xmlns="http://www.w3.org/2000/svg" xml:space="preserve" id="svg10" width="48" height="48" fill="none" version="1.1" viewBox="0 0 256 256"><rect id="rect1" width="256" height="256" x="0" y="0" fill="#242938" rx="60"/><style id="style1" type="text/css">.st1{fill:url(#SVGID_00000159452026937864759890000001604787857563989912_)}.st2{fill:url(#SVGID_00000083046397439901680110000001061935202581214609_)}.st3{fill:url(#SVGID_00000121996027062438643310000003159557918872077192_)}.st4{fill:url(#SVGID_00000033344814455974273880000008232834950123377811_)}.st5{fill:url(#SVGID_00000050664353443992748720000010204524186766376595_)}.st6{fill:url(#SVGID_00000134966898411905503930000005944705711103415714_)}.st7{fill:url(#SVGID_00000084499177236330483670000001502207582110851252_)}.st8{fill:url(#SVGID_00000089552379423389895260000014050525833069515431_)}.st9{fill:url(#SVGID_00000079479985523986849310000016828618932849764748_)}.st10{fill:url(#SVGID_00000063598957634656201170000005542634168720330665_)}.st11{fill:url(#SVGID_00000045581380279072085610000007637461662062616224_)}.st12{fill:url(#SVGID_00000032642122445502713170000009304248117954392724_)}.st13{fill:url(#SVGID_00000088095963847510620420000003447715037174197897_)}.st14{fill:url(#SVGID_00000134949086913736334670000015886813799050563237_)}.st15{fill:url(#SVGID_00000104669841081895996410000010715751712953468819_)}.st16{fill:url(#SVGID_00000036938363976137745720000010684425317996330902_)}.st17{fill:url(#SVGID_00000176725120105855248140000005053274441102023860_)}.st18{fill:url(#SVGID_00000002354187229226679190000011989728684547548825_)}.st19{fill:url(#SVGID_00000181797255747087145370000011693127274596813472_)}.st20{fill:url(#SVGID_00000054249888329767596680000005331133009721854345_)}.st21{fill:url(#SVGID_00000139283221591134499260000003413396491534712210_)}.st22{fill:url(#SVGID_00000008868566252055948590000013773187885727538104_)}.st23{fill:url(#SVGID_00000106857771081995380060000013764663780619912124_)}.st24{fill:url(#SVGID_00000177462460178025709180000017467976284365618837_)}.st25{fill:url(#SVGID_00000141449858088993883660000000514808470494053513_)}.st26{fill:url(#SVGID_00000004519065579677253270000004174766562733881017_)}.st27{fill:url(#SVGID_00000062161716162060604360000016475398274785413253_)}.st28{fill:url(#SVGID_00000007401996883947375270000006755155723731962547_)}</style><g id="g1" stroke-width="10.26" transform="matrix(.52 0 0 .52 24 24)"><g id="Layer_2" stroke-width="10.26"><linearGradient id="SVGID_1_" x1="-18.96" x2="402.95" y1="-2.09" y2="387.31" gradientUnits="userSpaceOnUse"><stop id="stop2" offset=".06" stop-color="#a9dde4" style="--darkreader-inline-stopcolor:var(--darkreader-text-a9dde4, #cdffff)"/><stop id="stop3" offset=".48" stop-color="#2f87ff" style="--darkreader-inline-stopcolor:var(--darkreader-text-2f87ff, #34d5ff)"/><stop id="stop4" offset=".64" stop-color="#2f87ff" style="--darkreader-inline-stopcolor:var(--darkreader-text-2f87ff, #34d5ff)"/><stop id="stop5" offset="1" stop-color="#7155c7" style="--darkreader-inline-stopcolor:var(--darkreader-text-7155c7, #9b73ff)"/></linearGradient><circle id="circle5" cx="200" cy="200" r="200" fill="url(#SVGID_1_)" stroke-width="10.26"/></g><g id="Layer_1" stroke-width="10.26"><g id="g145" stroke-width="10.26"><linearGradient id="SVGID_00000080885590302721911640000013192216532811291796_" x1="35.09" x2="170.68" y1="-2330.22" y2="-2455.05" gradientTransform="translate(0 2497.27)" gradientUnits="userSpaceOnUse"><stop id="stop6" offset="0" stop-color="#ebebeb" stop-opacity="0" style="--darkreader-inline-stopcolor:var(--darkreader-text-ebebeb, #ffffff)"/><stop id="stop7" offset=".3" stop-color="#ebebeb" style="--darkreader-inline-stopcolor:var(--darkreader-text-ebebeb, #ffffff)"/><stop id="stop8" offset=".5" stop-color="#ebebeb" style="--darkreader-inline-stopcolor:var(--darkreader-text-ebebeb, #ffffff)"/><stop id="stop9" offset=".7" stop-color="#ebebeb" style="--darkreader-inline-stopcolor:var(--darkreader-text-ebebeb, #ffffff)"/><stop id="stop10" offset="1" stop-color="#ebebeb" stop-opacity="0" style="--darkreader-inline-stopcolor:var(--darkreader-text-ebebeb, #ffffff)"/></linearGradient><path id="path10" fill="url(#SVGID_00000080885590302721911640000013192216532811291796_)" stroke-width="10.26" d="M198.54 40.32a193.64 193.64 0 0 0-59.24 16.75 171.85 171.85 0 0 0-83.24 84.11 186.25 186.25 0 0 0-15.47 58.67c-1.9-20.85.98-41.87 8.43-61.5 15.06-40.21 46.78-72.22 87.23-88.1a144.43 144.43 0 0 1 62.28-9.93Z"/><linearGradient id="SVGID_00000150075272055841504890000011925849620284047547_" x1="54.87" x2="174.37" y1="-2326.45" y2="-2436.51" gradientTransform="translate(0 2497.27)" gradientUnits="userSpaceOnUse"><stop id="stop11" offset="0" stop-color="#ebebeb" stop-opacity="0" style="--darkreader-inline-stopcolor:var(--darkreader-text-ebebeb, #ffffff)"/><stop id="stop12" offset=".3" stop-color="#ebebeb" style="--darkreader-inline-stopcolor:var(--darkreader-text-ebebeb, #ffffff)"/><stop id="stop13" offset=".5" stop-color="#ebebeb" style="--darkreader-inline-stopcolor:var(--darkreader-text-ebebeb, #ffffff)"/><stop id="stop14" offset=".7" stop-color="#ebebeb" style="--darkreader-inline-stopcolor:var(--darkreader-text-ebebeb, #ffffff)"/><stop id="stop15" offset="1" stop-color="#ebebeb" stop-opacity="0" style="--darkreader-inline-stopcolor:var(--darkreader-text-ebebeb, #ffffff)"/></linearGradient><path id="path15" fill="url(#SVGID_00000150075272055841504890000011925849620284047547_)" stroke-width="10.26" d="M59.97 199.84c-1.9-18.4.51-36.97 7.03-54.32 13.16-35.6 41.22-63.95 77.07-77.84a124.99 124.99 0 0 1 55.05-8.31 174.9 174.9 0 0 0-52 15.16 152.83 152.83 0 0 0-73.1 73.8 168.2 168.2 0 0 0-14.04 51.51z"/><linearGradient id="SVGID_00000153674115324673736220000015949259098028893571_" x1="74.61" x2="177.93" y1="-2322.72" y2="-2417.57" gradientTransform="translate(0 2497.27)" gradientUnits="userSpaceOnUse"><stop id="stop16" offset="0" stop-color="#ebebeb" stop-opacity="0" style="--darkreader-inline-stopcolor:var(--darkreader-text-ebebeb, #ffffff)"/><stop id="stop17" offset=".3" stop-color="#ebebeb" style="--darkreader-inline-stopcolor:var(--darkreader-text-ebebeb, #ffffff)"/><stop id="stop18" offset=".5" stop-color="#ebebeb" style="--darkreader-inline-stopcolor:var(--darkreader-text-ebebeb, #ffffff)"/><stop id="stop19" offset=".7" stop-color="#ebebeb" style="--darkreader-inline-stopcolor:var(--darkreader-text-ebebeb, #ffffff)"/><stop id="stop20" offset="1" stop-color="#ebebeb" stop-opacity="0" style="--darkreader-inline-stopcolor:var(--darkreader-text-ebebeb, #ffffff)"/></linearGradient><path id="path20" fill="url(#SVGID_00000153674115324673736220000015949259098028893571_)" stroke-width="10.26" d="M79.36 199.84c-1.9-15.88 0-31.99 5.54-47.03 11.2-30.93 35.48-55.56 66.57-67.51a105.57 105.57 0 0 1 47.63-6.86 156.68 156.68 0 0 0-44.56 13.69A134.14 134.14 0 0 0 91.9 155.6a150.23 150.23 0 0 0-12.56 44.23h.02z"/><linearGradient id="SVGID_00000155143475506458757980000002788628300417133228_" x1="94.39" x2="181.63" y1="-2318.93" y2="-2399.05" gradientTransform="translate(0 2497.27)" gradientUnits="userSpaceOnUse"><stop id="stop21" offset="0" stop-color="#ebebeb" stop-opacity="0" style="--darkreader-inline-stopcolor:var(--darkreader-text-ebebeb, #ffffff)"/><stop id="stop22" offset=".3" stop-color="#ebebeb" style="--darkreader-inline-stopcolor:var(--darkreader-text-ebebeb, #ffffff)"/><stop id="stop23" offset=".5" stop-color="#ebebeb" style="--darkreader-inline-stopcolor:var(--darkreader-text-ebebeb, #ffffff)"/><stop id="stop24" offset=".7" stop-color="#ebebeb" style="--darkreader-inline-stopcolor:var(--darkreader-text-ebebeb, #ffffff)"/><stop id="stop25" offset="1" stop-color="#ebebeb" stop-opacity="0" style="--darkreader-inline-stopcolor:var(--darkreader-text-ebebeb, #ffffff)"/></linearGradient><path id="path25" fill="url(#SVGID_00000155143475506458757980000002788628300417133228_)" stroke-width="10.26" d="M98.74 199.84a82.92 82.92 0 0 1 4.13-39.86 95.21 95.21 0 0 1 56.43-57.24 86.59 86.59 0 0 1 40.39-5.25 138.4 138.4 0 0 0-37.32 12.08 115.38 115.38 0 0 0-52.49 53.2 133.22 133.22 0 0 0-11.14 37.07z"/><linearGradient id="SVGID_00000110456036839435246780000005953572827226021022_" x1="114.12" x2="185.29" y1="-2315.15" y2="-2380.35" gradientTransform="translate(0 2497.27)" gradientUnits="userSpaceOnUse"><stop id="stop26" offset="0" stop-color="#ebebeb" stop-opacity="0" style="--darkreader-inline-stopcolor:var(--darkreader-text-ebebeb, #ffffff)"/><stop id="stop27" offset=".3" stop-color="#ebebeb" style="--darkreader-inline-stopcolor:var(--darkreader-text-ebebeb, #ffffff)"/><stop id="stop28" offset=".5" stop-color="#ebebeb" style="--darkreader-inline-stopcolor:var(--darkreader-text-ebebeb, #ffffff)"/><stop id="stop29" offset=".7" stop-color="#ebebeb" style="--darkreader-inline-stopcolor:var(--darkreader-text-ebebeb, #ffffff)"/><stop id="stop30" offset="1" stop-color="#ebebeb" stop-opacity="0" style="--darkreader-inline-stopcolor:var(--darkreader-text-ebebeb, #ffffff)"/></linearGradient><path id="path30" fill="url(#SVGID_00000110456036839435246780000005953572827226021022_)" stroke-width="10.26" d="M118.13 199.84a64.88 64.88 0 0 1 2.68-32.63 76.17 76.17 0 0 1 46.12-46.93 67.75 67.75 0 0 1 33.08-3.72 120.77 120.77 0 0 0-29.98 10.54 96.8 96.8 0 0 0-42.18 42.9 116.35 116.35 0 0 0-9.7 29.84z"/><linearGradient id="SVGID_00000044142691934830799370000014218285891199365013_" x1="133.75" x2="188.72" y1="-2311.4" y2="-2361.01" gradientTransform="translate(0 2497.27)" gradientUnits="userSpaceOnUse"><stop id="stop31" offset="0" stop-color="#ebebeb" stop-opacity="0" style="--darkreader-inline-stopcolor:var(--darkreader-text-ebebeb, #ffffff)"/><stop id="stop32" offset=".3" stop-color="#ebebeb" style="--darkreader-inline-stopcolor:var(--darkreader-text-ebebeb, #ffffff)"/><stop id="stop33" offset=".5" stop-color="#ebebeb" style="--darkreader-inline-stopcolor:var(--darkreader-text-ebebeb, #ffffff)"/><stop id="stop34" offset=".7" stop-color="#ebebeb" style="--darkreader-inline-stopcolor:var(--darkreader-text-ebebeb, #ffffff)"/><stop id="stop35" offset="1" stop-color="#ebebeb" stop-opacity="0" style="--darkreader-inline-stopcolor:var(--darkreader-text-ebebeb, #ffffff)"/></linearGradient><path id="path35" fill="url(#SVGID_00000044142691934830799370000014218285891199365013_)" stroke-width="10.26" d="M137.51 199.84c-3.98-16.38 2.2-34.92 14.42-47.53 12.14-12.68 30.64-19.75 47.49-16.66a107.07 107.07 0 0 0-22.33 9.21 79.57 79.57 0 0 0-31.39 32.54 102.96 102.96 0 0 0-8.17 22.42z"/><linearGradient id="SVGID_00000130627991812364463040000003406051681523372470_" x1="153.35" x2="192.16" y1="-2307.57" y2="-2341.88" gradientTransform="translate(0 2497.27)" gradientUnits="userSpaceOnUse"><stop id="stop36" offset="0" stop-color="#ebebeb" stop-opacity="0" style="--darkreader-inline-stopcolor:var(--darkreader-text-ebebeb, #ffffff)"/><stop id="stop37" offset=".3" stop-color="#ebebeb" style="--darkreader-inline-stopcolor:var(--darkreader-text-ebebeb, #ffffff)"/><stop id="stop38" offset=".5" stop-color="#ebebeb" style="--darkreader-inline-stopcolor:var(--darkreader-text-ebebeb, #ffffff)"/><stop id="stop39" offset=".7" stop-color="#ebebeb" style="--darkreader-inline-stopcolor:var(--darkreader-text-ebebeb, #ffffff)"/><stop id="stop40" offset="1" stop-color="#ebebeb" stop-opacity="0" style="--darkreader-inline-stopcolor:var(--darkreader-text-ebebeb, #ffffff)"/></linearGradient><path id="path40" fill="url(#SVGID_00000130627991812364463040000003406051681523372470_)" stroke-width="10.26" d="M156.89 199.84c-3.97-11.33.04-24.83 8.59-33.87 8.44-9.13 21.8-14.19 33.62-11.19a97.73 97.73 0 0 0-14.72 7.81 64.29 64.29 0 0 0-20.78 22.17 93.1 93.1 0 0 0-6.7 15.08z"/><linearGradient id="SVGID_00000161617181742423182110000005551768640371583671_" x1="42.45" x2="166.96" y1="-2268.06" y2="-2132.5" gradientTransform="translate(0 2497.27)" gradientUnits="userSpaceOnUse"><stop id="stop41" offset="0" stop-color="#ebebeb" stop-opacity="0" style="--darkreader-inline-stopcolor:var(--darkreader-text-ebebeb, #ffffff)"/><stop id="stop42" offset=".3" stop-color="#ebebeb" style="--darkreader-inline-stopcolor:var(--darkreader-text-ebebeb, #ffffff)"/><stop id="stop43" offset=".5" stop-color="#ebebeb" style="--darkreader-inline-stopcolor:var(--darkreader-text-ebebeb, #ffffff)"/><stop id="stop44" offset=".7" stop-color="#ebebeb" style="--darkreader-inline-stopcolor:var(--darkreader-text-ebebeb, #ffffff)"/><stop id="stop45" offset="1" stop-color="#ebebeb" stop-opacity="0" style="--darkreader-inline-stopcolor:var(--darkreader-text-ebebeb, #ffffff)"/></linearGradient><path id="path45" fill="url(#SVGID_00000161617181742423182110000005551768640371583671_)" stroke-width="10.26" d="M40.29 201.63a192.96 192.96 0 0 0 16.75 59.1 171.7 171.7 0 0 0 84.09 83.04 186.72 186.72 0 0 0 58.67 15.43 138.12 138.12 0 0 1-61.5-8.42c-40.21-15.02-72.22-46.67-88.1-87.03a143.71 143.71 0 0 1-9.93-62.13Z"/><linearGradient id="SVGID_00000054975160489936104200000001414809933634701245_" x1="60.97" x2="170.74" y1="-2271.73" y2="-2152.26" gradientTransform="translate(0 2497.27)" gradientUnits="userSpaceOnUse"><stop id="stop46" offset="0" stop-color="#ebebeb" stop-opacity="0" style="--darkreader-inline-stopcolor:var(--darkreader-text-ebebeb, #ffffff)"/><stop id="stop47" offset=".3" stop-color="#ebebeb" style="--darkreader-inline-stopcolor:var(--darkreader-text-ebebeb, #ffffff)"/><stop id="stop48" offset=".5" stop-color="#ebebeb" style="--darkreader-inline-stopcolor:var(--darkreader-text-ebebeb, #ffffff)"/><stop id="stop49" offset=".7" stop-color="#ebebeb" style="--darkreader-inline-stopcolor:var(--darkreader-text-ebebeb, #ffffff)"/><stop id="stop50" offset="1" stop-color="#ebebeb" stop-opacity="0" style="--darkreader-inline-stopcolor:var(--darkreader-text-ebebeb, #ffffff)"/></linearGradient><path id="path50" fill="url(#SVGID_00000054975160489936104200000001414809933634701245_)" stroke-width="10.26" d="M199.82 339.87c-18.4 1.89-36.97-.5-54.32-7-35.6-13.13-63.95-41.13-77.84-76.89a124.4 124.4 0 0 1-8.31-54.91 174.02 174.02 0 0 0 15.16 51.87 152.65 152.65 0 0 0 73.8 72.93 168.11 168.11 0 0 0 51.52 14z"/><linearGradient id="SVGID_00000059281573452757833700000004054207755611356561_" x1="79.87" x2="174.48" y1="-2275.25" y2="-2171.96" gradientTransform="translate(0 2497.27)" gradientUnits="userSpaceOnUse"><stop id="stop51" offset="0" stop-color="#ebebeb" stop-opacity="0" style="--darkreader-inline-stopcolor:var(--darkreader-text-ebebeb, #ffffff)"/><stop id="stop52" offset=".3" stop-color="#ebebeb" style="--darkreader-inline-stopcolor:var(--darkreader-text-ebebeb, #ffffff)"/><stop id="stop53" offset=".5" stop-color="#ebebeb" style="--darkreader-inline-stopcolor:var(--darkreader-text-ebebeb, #ffffff)"/><stop id="stop54" offset=".7" stop-color="#ebebeb" style="--darkreader-inline-stopcolor:var(--darkreader-text-ebebeb, #ffffff)"/><stop id="stop55" offset="1" stop-color="#ebebeb" stop-opacity="0" style="--darkreader-inline-stopcolor:var(--darkreader-text-ebebeb, #ffffff)"/></linearGradient><path id="path55" fill="url(#SVGID_00000059281573452757833700000004054207755611356561_)" stroke-width="10.26" d="M199.82 320.54c-15.88 1.9-31.99 0-47.03-5.53a114.02 114.02 0 0 1-67.51-66.42 105.24 105.24 0 0 1-6.86-47.53 156.3 156.3 0 0 0 13.69 44.47 133.96 133.96 0 0 0 63.49 62.49 150.48 150.48 0 0 0 44.23 12.53z"/><linearGradient id="SVGID_00000048477315145940311910000005897263157059079332_" x1="98.35" x2="178.27" y1="-2278.92" y2="-2191.69" gradientTransform="translate(0 2497.27)" gradientUnits="userSpaceOnUse"><stop id="stop56" offset="0" stop-color="#ebebeb" stop-opacity="0" style="--darkreader-inline-stopcolor:var(--darkreader-text-ebebeb, #ffffff)"/><stop id="stop57" offset=".3" stop-color="#ebebeb" style="--darkreader-inline-stopcolor:var(--darkreader-text-ebebeb, #ffffff)"/><stop id="stop58" offset=".5" stop-color="#ebebeb" style="--darkreader-inline-stopcolor:var(--darkreader-text-ebebeb, #ffffff)"/><stop id="stop59" offset=".7" stop-color="#ebebeb" style="--darkreader-inline-stopcolor:var(--darkreader-text-ebebeb, #ffffff)"/><stop id="stop60" offset="1" stop-color="#ebebeb" stop-opacity="0" style="--darkreader-inline-stopcolor:var(--darkreader-text-ebebeb, #ffffff)"/></linearGradient><path id="path60" fill="url(#SVGID_00000048477315145940311910000005897263157059079332_)" stroke-width="10.26" d="M199.82 301.2a83.04 83.04 0 0 1-39.86-4.12 95.06 95.06 0 0 1-57.24-56.3 86.21 86.21 0 0 1-5.25-40.3 137.97 137.97 0 0 0 12.08 37.24 115.17 115.17 0 0 0 53.2 52.35 132.86 132.86 0 0 0 37.07 11.13z"/><linearGradient id="SVGID_00000114785784116206069180000018377963951175819910_" x1="117.03" x2="182.07" y1="-2282.53" y2="-2211.38" gradientTransform="translate(0 2497.27)" gradientUnits="userSpaceOnUse"><stop id="stop61" offset="0" stop-color="#ebebeb" stop-opacity="0" style="--darkreader-inline-stopcolor:var(--darkreader-text-ebebeb, #ffffff)"/><stop id="stop62" offset=".3" stop-color="#ebebeb" style="--darkreader-inline-stopcolor:var(--darkreader-text-ebebeb, #ffffff)"/><stop id="stop63" offset=".5" stop-color="#ebebeb" style="--darkreader-inline-stopcolor:var(--darkreader-text-ebebeb, #ffffff)"/><stop id="stop64" offset=".7" stop-color="#ebebeb" style="--darkreader-inline-stopcolor:var(--darkreader-text-ebebeb, #ffffff)"/><stop id="stop65" offset="1" stop-color="#ebebeb" stop-opacity="0" style="--darkreader-inline-stopcolor:var(--darkreader-text-ebebeb, #ffffff)"/></linearGradient><path id="path65" fill="url(#SVGID_00000114785784116206069180000018377963951175819910_)" stroke-width="10.26" d="M199.82 281.86a65.1 65.1 0 0 1-32.63-2.66 76.13 76.13 0 0 1-46.93-46 67.43 67.43 0 0 1-3.72-33 120.34 120.34 0 0 0 10.54 29.92 96.79 96.79 0 0 0 42.9 42.08 116.28 116.28 0 0 0 29.84 9.67z"/><linearGradient id="SVGID_00000085946602006206937300000000103022289125544322_" x1="136.35" x2="185.82" y1="-2285.93" y2="-2230.97" gradientTransform="translate(0 2497.27)" gradientUnits="userSpaceOnUse"><stop id="stop66" offset="0" stop-color="#ebebeb" stop-opacity="0" style="--darkreader-inline-stopcolor:var(--darkreader-text-ebebeb, #ffffff)"/><stop id="stop67" offset=".3" stop-color="#ebebeb" style="--darkreader-inline-stopcolor:var(--darkreader-text-ebebeb, #ffffff)"/><stop id="stop68" offset=".5" stop-color="#ebebeb" style="--darkreader-inline-stopcolor:var(--darkreader-text-ebebeb, #ffffff)"/><stop id="stop69" offset=".7" stop-color="#ebebeb" style="--darkreader-inline-stopcolor:var(--darkreader-text-ebebeb, #ffffff)"/><stop id="stop70" offset="1" stop-color="#ebebeb" stop-opacity="0" style="--darkreader-inline-stopcolor:var(--darkreader-text-ebebeb, #ffffff)"/></linearGradient><path id="path70" fill="url(#SVGID_00000085946602006206937300000000103022289125544322_)" stroke-width="10.26" d="M199.82 262.52c-16.4 3.98-34.92-2.2-47.53-14.38-12.68-12.11-19.75-30.56-16.66-47.38a106.89 106.89 0 0 0 9.21 22.28 79.61 79.61 0 0 0 32.54 31.33 103.42 103.42 0 0 0 22.42 8.15z"/><linearGradient id="SVGID_00000015327804055004505810000009436543394725943712_" x1="155.45" x2="189.66" y1="-2289.33" y2="-2250.54" gradientTransform="translate(0 2497.27)" gradientUnits="userSpaceOnUse"><stop id="stop71" offset="0" stop-color="#ebebeb" stop-opacity="0" style="--darkreader-inline-stopcolor:var(--darkreader-text-ebebeb, #ffffff)"/><stop id="stop72" offset=".3" stop-color="#ebebeb" style="--darkreader-inline-stopcolor:var(--darkreader-text-ebebeb, #ffffff)"/><stop id="stop73" offset=".5" stop-color="#ebebeb" style="--darkreader-inline-stopcolor:var(--darkreader-text-ebebeb, #ffffff)"/><stop id="stop74" offset=".7" stop-color="#ebebeb" style="--darkreader-inline-stopcolor:var(--darkreader-text-ebebeb, #ffffff)"/><stop id="stop75" offset="1" stop-color="#ebebeb" stop-opacity="0" style="--darkreader-inline-stopcolor:var(--darkreader-text-ebebeb, #ffffff)"/></linearGradient><path id="path75" fill="url(#SVGID_00000015327804055004505810000009436543394725943712_)" stroke-width="10.26" d="M199.82 243.18c-11.33 3.97-24.83-.04-33.87-8.56-9.13-8.43-14.19-21.75-11.19-33.54a97.42 97.42 0 0 0 7.81 14.69 64.36 64.36 0 0 0 22.17 20.74 94.83 94.83 0 0 0 15.08 6.69z"/><linearGradient id="SVGID_00000118365790525590076360000015611073407242428852_" x1="229.2" x2="364.75" y1="-2139.72" y2="-2264.23" gradientTransform="translate(0 2497.27)" gradientUnits="userSpaceOnUse"><stop id="stop76" offset="0" stop-color="#ebebeb" stop-opacity="0" style="--darkreader-inline-stopcolor:var(--darkreader-text-ebebeb, #ffffff)"/><stop id="stop77" offset=".3" stop-color="#ebebeb" style="--darkreader-inline-stopcolor:var(--darkreader-text-ebebeb, #ffffff)"/><stop id="stop78" offset=".5" stop-color="#ebebeb" style="--darkreader-inline-stopcolor:var(--darkreader-text-ebebeb, #ffffff)"/><stop id="stop79" offset=".7" stop-color="#ebebeb" style="--darkreader-inline-stopcolor:var(--darkreader-text-ebebeb, #ffffff)"/><stop id="stop80" offset="1" stop-color="#ebebeb" stop-opacity="0" style="--darkreader-inline-stopcolor:var(--darkreader-text-ebebeb, #ffffff)"/></linearGradient><path id="path80" fill="url(#SVGID_00000118365790525590076360000015611073407242428852_)" stroke-width="10.26" d="M201.62 359.7a192.94 192.94 0 0 0 59.1-16.74 171.66 171.66 0 0 0 83.04-84.11 187 187 0 0 0 15.43-58.67c1.9 20.85-.98 41.87-8.42 61.5-15.02 40.21-46.67 72.22-87.03 88.1a143.86 143.86 0 0 1-62.13 9.93z"/><linearGradient id="SVGID_00000057146115288349451060000015043729730000448910_" x1="225.55" x2="345" y1="-2158.23" y2="-2268.01" gradientTransform="translate(0 2497.27)" gradientUnits="userSpaceOnUse"><stop id="stop81" offset="0" stop-color="#ebebeb" stop-opacity="0" style="--darkreader-inline-stopcolor:var(--darkreader-text-ebebeb, #ffffff)"/><stop id="stop82" offset=".3" stop-color="#ebebeb" style="--darkreader-inline-stopcolor:var(--darkreader-text-ebebeb, #ffffff)"/><stop id="stop83" offset=".5" stop-color="#ebebeb" style="--darkreader-inline-stopcolor:var(--darkreader-text-ebebeb, #ffffff)"/><stop id="stop84" offset=".7" stop-color="#ebebeb" style="--darkreader-inline-stopcolor:var(--darkreader-text-ebebeb, #ffffff)"/><stop id="stop85" offset="1" stop-color="#ebebeb" stop-opacity="0" style="--darkreader-inline-stopcolor:var(--darkreader-text-ebebeb, #ffffff)"/></linearGradient><path id="path85" fill="url(#SVGID_00000057146115288349451060000015043729730000448910_)" stroke-width="10.26" d="M339.86 200.18c1.89 18.4-.5 36.97-7 54.32-13.12 35.6-41.13 63.95-76.89 77.84a124.44 124.44 0 0 1-54.91 8.31 174.02 174.02 0 0 0 51.87-15.16 152.65 152.65 0 0 0 72.93-73.8 168.13 168.13 0 0 0 14-51.51z"/><linearGradient id="SVGID_00000004504369580933180110000010703824034602716290_" x1="222" x2="325.3" y1="-2177.15" y2="-2271.75" gradientTransform="translate(0 2497.27)" gradientUnits="userSpaceOnUse"><stop id="stop86" offset="0" stop-color="#ebebeb" stop-opacity="0" style="--darkreader-inline-stopcolor:var(--darkreader-text-ebebeb, #ffffff)"/><stop id="stop87" offset=".3" stop-color="#ebebeb" style="--darkreader-inline-stopcolor:var(--darkreader-text-ebebeb, #ffffff)"/><stop id="stop88" offset=".5" stop-color="#ebebeb" style="--darkreader-inline-stopcolor:var(--darkreader-text-ebebeb, #ffffff)"/><stop id="stop89" offset=".7" stop-color="#ebebeb" style="--darkreader-inline-stopcolor:var(--darkreader-text-ebebeb, #ffffff)"/><stop id="stop90" offset="1" stop-color="#ebebeb" stop-opacity="0" style="--darkreader-inline-stopcolor:var(--darkreader-text-ebebeb, #ffffff)"/></linearGradient><path id="path90" fill="url(#SVGID_00000004504369580933180110000010703824034602716290_)" stroke-width="10.26" d="M320.52 200.18c1.9 15.88 0 31.99-5.53 47.03a114 114 0 0 1-66.43 67.51 105.1 105.1 0 0 1-47.53 6.86 155.98 155.98 0 0 0 44.45-13.69 133.96 133.96 0 0 0 62.49-63.47 150.48 150.48 0 0 0 12.53-44.23h.02z"/><linearGradient id="SVGID_00000084492049410161726130000017517615825050017470_" x1="218.34" x2="305.57" y1="-2195.64" y2="-2275.55" gradientTransform="translate(0 2497.27)" gradientUnits="userSpaceOnUse"><stop id="stop91" offset="0" stop-color="#ebebeb" stop-opacity="0" style="--darkreader-inline-stopcolor:var(--darkreader-text-ebebeb, #ffffff)"/><stop id="stop92" offset=".3" stop-color="#ebebeb" style="--darkreader-inline-stopcolor:var(--darkreader-text-ebebeb, #ffffff)"/><stop id="stop93" offset=".5" stop-color="#ebebeb" style="--darkreader-inline-stopcolor:var(--darkreader-text-ebebeb, #ffffff)"/><stop id="stop94" offset=".7" stop-color="#ebebeb" style="--darkreader-inline-stopcolor:var(--darkreader-text-ebebeb, #ffffff)"/><stop id="stop95" offset="1" stop-color="#ebebeb" stop-opacity="0" style="--darkreader-inline-stopcolor:var(--darkreader-text-ebebeb, #ffffff)"/></linearGradient><path id="path95" fill="url(#SVGID_00000084492049410161726130000017517615825050017470_)" stroke-width="10.26" d="M301.18 200.18a83.04 83.04 0 0 1-4.12 39.86 95.06 95.06 0 0 1-56.3 57.24 86.21 86.21 0 0 1-40.3 5.25 137.97 137.97 0 0 0 37.24-12.08 115.17 115.17 0 0 0 52.35-53.2 132.53 132.53 0 0 0 11.13-37.07z"/><linearGradient id="SVGID_00000176024792437473650000000008087625248915782833_" x1="214.73" x2="285.88" y1="-2214.31" y2="-2279.34" gradientTransform="translate(0 2497.27)" gradientUnits="userSpaceOnUse"><stop id="stop96" offset="0" stop-color="#ebebeb" stop-opacity="0" style="--darkreader-inline-stopcolor:var(--darkreader-text-ebebeb, #ffffff)"/><stop id="stop97" offset=".3" stop-color="#ebebeb" style="--darkreader-inline-stopcolor:var(--darkreader-text-ebebeb, #ffffff)"/><stop id="stop98" offset=".5" stop-color="#ebebeb" style="--darkreader-inline-stopcolor:var(--darkreader-text-ebebeb, #ffffff)"/><stop id="stop99" offset=".7" stop-color="#ebebeb" style="--darkreader-inline-stopcolor:var(--darkreader-text-ebebeb, #ffffff)"/><stop id="stop100" offset="1" stop-color="#ebebeb" stop-opacity="0" style="--darkreader-inline-stopcolor:var(--darkreader-text-ebebeb, #ffffff)"/></linearGradient><path id="path100" fill="url(#SVGID_00000176024792437473650000000008087625248915782833_)" stroke-width="10.26" d="M281.84 200.18a65.1 65.1 0 0 1-2.66 32.63 76.13 76.13 0 0 1-46 46.93 67.43 67.43 0 0 1-33 3.72 120.34 120.34 0 0 0 29.92-10.54 96.79 96.79 0 0 0 42.08-42.9 116.28 116.28 0 0 0 9.67-29.84z"/><linearGradient id="SVGID_00000067955995782406741130000001134980634434442425_" x1="211.34" x2="266.29" y1="-2233.62" y2="-2283.1" gradientTransform="translate(0 2497.27)" gradientUnits="userSpaceOnUse"><stop id="stop101" offset="0" stop-color="#ebebeb" stop-opacity="0" style="--darkreader-inline-stopcolor:var(--darkreader-text-ebebeb, #ffffff)"/><stop id="stop102" offset=".3" stop-color="#ebebeb" style="--darkreader-inline-stopcolor:var(--darkreader-text-ebebeb, #ffffff)"/><stop id="stop103" offset=".5" stop-color="#ebebeb" style="--darkreader-inline-stopcolor:var(--darkreader-text-ebebeb, #ffffff)"/><stop id="stop104" offset=".7" stop-color="#ebebeb" style="--darkreader-inline-stopcolor:var(--darkreader-text-ebebeb, #ffffff)"/><stop id="stop105" offset="1" stop-color="#ebebeb" stop-opacity="0" style="--darkreader-inline-stopcolor:var(--darkreader-text-ebebeb, #ffffff)"/></linearGradient><path id="path105" fill="url(#SVGID_00000067955995782406741130000001134980634434442425_)" stroke-width="10.26" d="M262.51 200.18c3.98 16.38-2.2 34.92-14.38 47.53-12.1 12.68-30.56 19.75-47.38 16.66a106.89 106.89 0 0 0 22.28-9.21 79.74 79.74 0 0 0 31.33-32.54 103.42 103.42 0 0 0 8.15-22.42z"/><linearGradient id="SVGID_00000153663442459322435540000003546812329395787175_" x1="207.92" x2="246.72" y1="-2252.71" y2="-2286.93" gradientTransform="translate(0 2497.27)" gradientUnits="userSpaceOnUse"><stop id="stop106" offset="0" stop-color="#ebebeb" stop-opacity="0" style="--darkreader-inline-stopcolor:var(--darkreader-text-ebebeb, #ffffff)"/><stop id="stop107" offset=".3" stop-color="#ebebeb" style="--darkreader-inline-stopcolor:var(--darkreader-text-ebebeb, #ffffff)"/><stop id="stop108" offset=".5" stop-color="#ebebeb" style="--darkreader-inline-stopcolor:var(--darkreader-text-ebebeb, #ffffff)"/><stop id="stop109" offset=".7" stop-color="#ebebeb" style="--darkreader-inline-stopcolor:var(--darkreader-text-ebebeb, #ffffff)"/><stop id="stop110" offset="1" stop-color="#ebebeb" stop-opacity="0" style="--darkreader-inline-stopcolor:var(--darkreader-text-ebebeb, #ffffff)"/></linearGradient><path id="path110" fill="url(#SVGID_00000153663442459322435540000003546812329395787175_)" stroke-width="10.26" d="M243.17 200.18c3.97 11.33-.04 24.83-8.56 33.87-8.43 9.13-21.75 14.19-33.54 11.19a97.42 97.42 0 0 0 14.69-7.81 64.27 64.27 0 0 0 20.74-22.17 94.83 94.83 0 0 0 6.69-15.08z"/><linearGradient id="SVGID_00000060721821710403953140000017780419569697652909_" x1="232.99" x2="357.81" y1="-2462.2" y2="-2326.61" gradientTransform="translate(0 2497.27)" gradientUnits="userSpaceOnUse"><stop id="stop111" offset="0" stop-color="#ebebeb" stop-opacity="0" style="--darkreader-inline-stopcolor:var(--darkreader-text-ebebeb, #ffffff)"/><stop id="stop112" offset=".3" stop-color="#ebebeb" style="--darkreader-inline-stopcolor:var(--darkreader-text-ebebeb, #ffffff)"/><stop id="stop113" offset=".5" stop-color="#ebebeb" style="--darkreader-inline-stopcolor:var(--darkreader-text-ebebeb, #ffffff)"/><stop id="stop114" offset=".7" stop-color="#ebebeb" style="--darkreader-inline-stopcolor:var(--darkreader-text-ebebeb, #ffffff)"/><stop id="stop115" offset="1" stop-color="#ebebeb" stop-opacity="0" style="--darkreader-inline-stopcolor:var(--darkreader-text-ebebeb, #ffffff)"/></linearGradient><path id="path115" fill="url(#SVGID_00000060721821710403953140000017780419569697652909_)" stroke-width="10.26" d="M359.71 198.53a193.64 193.64 0 0 0-16.75-59.24 171.9 171.9 0 0 0-84.09-83.24 186.25 186.25 0 0 0-58.67-15.47c20.85-1.9 41.87.98 61.5 8.43 40.21 15.06 72.22 46.78 88.1 87.23a144.38 144.38 0 0 1 9.93 62.27z"/><linearGradient id="SVGID_00000078726701296136707850000013466584959091802001_" x1="229.2" x2="339.27" y1="-2442.41" y2="-2322.92" gradientTransform="translate(0 2497.27)" gradientUnits="userSpaceOnUse"><stop id="stop116" offset="0" stop-color="#ebebeb" stop-opacity="0" style="--darkreader-inline-stopcolor:var(--darkreader-text-ebebeb, #ffffff)"/><stop id="stop117" offset=".3" stop-color="#ebebeb" style="--darkreader-inline-stopcolor:var(--darkreader-text-ebebeb, #ffffff)"/><stop id="stop118" offset=".5" stop-color="#ebebeb" style="--darkreader-inline-stopcolor:var(--darkreader-text-ebebeb, #ffffff)"/><stop id="stop119" offset=".7" stop-color="#ebebeb" style="--darkreader-inline-stopcolor:var(--darkreader-text-ebebeb, #ffffff)"/><stop id="stop120" offset="1" stop-color="#ebebeb" stop-opacity="0" style="--darkreader-inline-stopcolor:var(--darkreader-text-ebebeb, #ffffff)"/></linearGradient><path id="path120" fill="url(#SVGID_00000078726701296136707850000013466584959091802001_)" stroke-width="10.26" d="M200.19 59.96c18.4-1.9 36.97.51 54.32 7.03 35.6 13.16 63.95 41.22 77.84 77.07a124.99 124.99 0 0 1 8.31 55.05 174.9 174.9 0 0 0-15.16-52 152.83 152.83 0 0 0-73.8-73.1 168.18 168.18 0 0 0-51.52-14.04z"/><linearGradient id="SVGID_00000101822916819797510760000015940992637458514877_" x1="225.48" x2="320.33" y1="-2422.67" y2="-2319.35" gradientTransform="translate(0 2497.27)" gradientUnits="userSpaceOnUse"><stop id="stop121" offset="0" stop-color="#ebebeb" stop-opacity="0" style="--darkreader-inline-stopcolor:var(--darkreader-text-ebebeb, #ffffff)"/><stop id="stop122" offset=".3" stop-color="#ebebeb" style="--darkreader-inline-stopcolor:var(--darkreader-text-ebebeb, #ffffff)"/><stop id="stop123" offset=".5" stop-color="#ebebeb" style="--darkreader-inline-stopcolor:var(--darkreader-text-ebebeb, #ffffff)"/><stop id="stop124" offset=".7" stop-color="#ebebeb" style="--darkreader-inline-stopcolor:var(--darkreader-text-ebebeb, #ffffff)"/><stop id="stop125" offset="1" stop-color="#ebebeb" stop-opacity="0" style="--darkreader-inline-stopcolor:var(--darkreader-text-ebebeb, #ffffff)"/></linearGradient><path id="path125" fill="url(#SVGID_00000101822916819797510760000015940992637458514877_)" stroke-width="10.26" d="M200.19 79.35c15.88-1.9 31.99 0 47.03 5.54 30.93 11.2 55.56 35.48 67.51 66.57a105.57 105.57 0 0 1 6.86 47.63 156.85 156.85 0 0 0-13.69-44.57 134.03 134.03 0 0 0-63.49-62.63 150.23 150.23 0 0 0-44.23-12.56Z"/><linearGradient id="SVGID_00000010292102503594200090000010970472906255504788_" x1="221.68" x2="301.82" y1="-2402.9" y2="-2315.65" gradientTransform="translate(0 2497.27)" gradientUnits="userSpaceOnUse"><stop id="stop126" offset="0" stop-color="#ebebeb" stop-opacity="0" style="--darkreader-inline-stopcolor:var(--darkreader-text-ebebeb, #ffffff)"/><stop id="stop127" offset=".3" stop-color="#ebebeb" style="--darkreader-inline-stopcolor:var(--darkreader-text-ebebeb, #ffffff)"/><stop id="stop128" offset=".5" stop-color="#ebebeb" style="--darkreader-inline-stopcolor:var(--darkreader-text-ebebeb, #ffffff)"/><stop id="stop129" offset=".7" stop-color="#ebebeb" style="--darkreader-inline-stopcolor:var(--darkreader-text-ebebeb, #ffffff)"/><stop id="stop130" offset="1" stop-color="#ebebeb" stop-opacity="0" style="--darkreader-inline-stopcolor:var(--darkreader-text-ebebeb, #ffffff)"/></linearGradient><path id="path130" fill="url(#SVGID_00000010292102503594200090000010970472906255504788_)" stroke-width="10.26" d="M200.19 98.73a82.92 82.92 0 0 1 39.86 4.13 95.21 95.21 0 0 1 57.24 56.43 86.59 86.59 0 0 1 5.25 40.39 138.4 138.4 0 0 0-12.08-37.32 115.38 115.38 0 0 0-53.2-52.49 133.22 133.22 0 0 0-37.07-11.14z"/><linearGradient id="SVGID_00000170253349384370652510000016730502635136966530_" x1="217.9" x2="283.11" y1="-2383.16" y2="-2312" gradientTransform="translate(0 2497.27)" gradientUnits="userSpaceOnUse"><stop id="stop131" offset="0" stop-color="#ebebeb" stop-opacity="0" style="--darkreader-inline-stopcolor:var(--darkreader-text-ebebeb, #ffffff)"/><stop id="stop132" offset=".3" stop-color="#ebebeb" style="--darkreader-inline-stopcolor:var(--darkreader-text-ebebeb, #ffffff)"/><stop id="stop133" offset=".5" stop-color="#ebebeb" style="--darkreader-inline-stopcolor:var(--darkreader-text-ebebeb, #ffffff)"/><stop id="stop134" offset=".7" stop-color="#ebebeb" style="--darkreader-inline-stopcolor:var(--darkreader-text-ebebeb, #ffffff)"/><stop id="stop135" offset="1" stop-color="#ebebeb" stop-opacity="0" style="--darkreader-inline-stopcolor:var(--darkreader-text-ebebeb, #ffffff)"/></linearGradient><path id="path135" fill="url(#SVGID_00000170253349384370652510000016730502635136966530_)" stroke-width="10.26" d="M200.19 118.12a64.88 64.88 0 0 1 32.63 2.68 76.19 76.19 0 0 1 46.93 46.1 67.75 67.75 0 0 1 3.72 33.08A120.77 120.77 0 0 0 272.93 170a96.8 96.8 0 0 0-42.9-42.18 116.35 116.35 0 0 0-29.84-9.7z"/><linearGradient id="SVGID_00000101071426034204619770000002866811204052719285_" x1="214.15" x2="263.76" y1="-2363.54" y2="-2308.57" gradientTransform="translate(0 2497.27)" gradientUnits="userSpaceOnUse"><stop id="stop136" offset="0" stop-color="#ebebeb" stop-opacity="0" style="--darkreader-inline-stopcolor:var(--darkreader-text-ebebeb, #ffffff)"/><stop id="stop137" offset=".3" stop-color="#ebebeb" style="--darkreader-inline-stopcolor:var(--darkreader-text-ebebeb, #ffffff)"/><stop id="stop138" offset=".5" stop-color="#ebebeb" style="--darkreader-inline-stopcolor:var(--darkreader-text-ebebeb, #ffffff)"/><stop id="stop139" offset=".7" stop-color="#ebebeb" style="--darkreader-inline-stopcolor:var(--darkreader-text-ebebeb, #ffffff)"/><stop id="stop140" offset="1" stop-color="#ebebeb" stop-opacity="0" style="--darkreader-inline-stopcolor:var(--darkreader-text-ebebeb, #ffffff)"/></linearGradient><path id="path140" fill="url(#SVGID_00000101071426034204619770000002866811204052719285_)" stroke-width="10.26" d="M200.19 137.5c16.4-3.98 34.92 2.2 47.53 14.42 12.68 12.14 19.75 30.64 16.66 47.49a107.07 107.07 0 0 0-9.21-22.33 79.57 79.57 0 0 0-32.54-31.39 102.96 102.96 0 0 0-22.42-8.17z"/><linearGradient id="SVGID_00000117659164435515206660000004980092231913710209_" x1="210.32" x2="244.63" y1="-2343.93" y2="-2305.12" gradientTransform="translate(0 2497.27)" gradientUnits="userSpaceOnUse"><stop id="stop141" offset="0" stop-color="#ebebeb" stop-opacity="0" style="--darkreader-inline-stopcolor:var(--darkreader-text-ebebeb, #ffffff)"/><stop id="stop142" offset=".3" stop-color="#ebebeb" style="--darkreader-inline-stopcolor:var(--darkreader-text-ebebeb, #ffffff)"/><stop id="stop143" offset=".5" stop-color="#ebebeb" style="--darkreader-inline-stopcolor:var(--darkreader-text-ebebeb, #ffffff)"/><stop id="stop144" offset=".7" stop-color="#ebebeb" style="--darkreader-inline-stopcolor:var(--darkreader-text-ebebeb, #ffffff)"/><stop id="stop145" offset="1" stop-color="#ebebeb" stop-opacity="0" style="--darkreader-inline-stopcolor:var(--darkreader-text-ebebeb, #ffffff)"/></linearGradient><path id="path145" fill="url(#SVGID_00000117659164435515206660000004980092231913710209_)" stroke-width="10.26" d="M200.19 156.87c11.33-3.97 24.83.04 33.87 8.59 9.13 8.44 14.19 21.8 11.19 33.62a98.65 98.65 0 0 0-7.81-14.72 64.29 64.29 0 0 0-22.17-20.78 93.1 93.1 0 0 0-15.08-6.7z"/></g></g></g></svg>