<svg xmlns="http://www.w3.org/2000/svg" xml:space="preserve" width="48" height="48" fill="none" viewBox="0 0 256 256"><rect width="256" height="256" fill="#242938" rx="60"/><g transform="translate(24.25 25.08) scale(.7638)"><ellipse cx="135.83" cy="134.75" fill="#fff" rx="126.87" ry="125.79"/><path fill="#8dc63f" d="M135.83 269.5C60.93 269.5 0 209.05 0 134.75S60.93 0 135.83 0s135.84 60.45 135.84 134.75S210.73 269.5 135.83 269.5zm0-251.57c-65 0-117.9 52.4-117.9 116.82 0 64.42 52.89 116.82 117.9 116.82s117.91-52.4 117.91-116.82c0-64.42-52.89-116.82-117.91-116.82z"/></g><path fill="#f3bd48" d="M139.59 146.21c6.2 15.45 12.98 30.86 21.33 46.24a10.7 10.7 0 0 0 15.46 3.6A84.03 84.03 0 0 0 198 174.03a10.5 10.5 0 0 0-5.82-15.85c-16.52-4.96-31.86-11.07-46.8-17.5a4.34 4.34 0 0 0-5.8 5.54z"/><path fill="#f09f53" d="M147.99 133.2c15.71 6.75 31.78 13.1 49.17 18.1a10.7 10.7 0 0 0 13.46-8.32 83.05 83.05 0 0 0-.28-31.4 10.7 10.7 0 0 0-15.41-7.25c-15.65 8.19-31.26 14.79-46.83 20.9a4.3 4.3 0 0 0-.11 7.98z"/><path fill="#ecdc13" d="M131.95 148.27a4.37 4.37 0 0 0-8.05-.12c-6.8 15.54-13.18 31.41-18.22 48.58a10.58 10.58 0 0 0 8.47 13.4 85.91 85.91 0 0 0 13.89 1.12 84.94 84.94 0 0 0 17.47-1.8 10.57 10.57 0 0 0 7.28-15.27c-8.2-15.33-14.79-30.64-20.84-45.9z"/><path fill="#a95a96" d="M124.86 108.43a4.37 4.37 0 0 0 8.04.12c6.88-15.7 13.3-31.75 18.33-49.14a10.6 10.6 0 0 0-8.4-13.36 85.55 85.55 0 0 0-31.9.42 10.55 10.55 0 0 0-7.25 15.27c8.28 15.6 14.98 31.16 21.18 46.68z"/><path fill="#2b8ec1" d="M63.15 99.09c17.25 5.13 33.19 11.53 48.75 18.26a4.34 4.34 0 0 0 5.78-5.56c-6.47-16.18-13.47-32.33-22.3-48.46a10.7 10.7 0 0 0-15.45-3.6 84.17 84.17 0 0 0-22.77 23.56 10.55 10.55 0 0 0 6 15.8Z"/><path fill="#add14c" d="M116.5 145.21a4.34 4.34 0 0 0-5.6-5.73c-15.9 6.29-31.79 13.06-47.63 21.56a10.5 10.5 0 0 0-3.58 15.38 84.08 84.08 0 0 0 23.01 21.7 10.7 10.7 0 0 0 15.9-5.82c5.08-16.64 11.32-32.02 17.9-47.09z"/><path fill="#e74253" d="M140.02 112.02a4.33 4.33 0 0 0 5.6 5.73c16-6.3 31.95-13.14 47.88-21.7a10.5 10.5 0 0 0 3.67-15.27 84.12 84.12 0 0 0-22.98-22.31 10.7 10.7 0 0 0-15.99 5.77c-5.13 16.9-11.49 32.53-18.18 47.78z"/><path fill="#01b699" d="M108.02 124.24c-15.79-6.79-31.92-13.16-49.4-18.2a10.7 10.7 0 0 0-13.5 8.4 83.88 83.88 0 0 0-1.1 13.53 82.89 82.89 0 0 0 1.99 18.07 10.65 10.65 0 0 0 15.35 6.93c15.53-8.14 31.04-14.71 46.54-20.79a4.3 4.3 0 0 0 .12-7.94z"/></svg>