<?xml version="1.0" encoding="UTF-8" standalone="no"?>
<svg
   width="48"
   height="48"
   viewBox="0 0 256 256"
   fill="none"
   version="1.1"
   id="svg10"
   xml:space="preserve"
   xmlns="http://www.w3.org/2000/svg"
   xmlns:svg="http://www.w3.org/2000/svg"><defs
     id="defs10"><radialGradient
       id="paint0_radial_2994_8373"
       cx="0"
       cy="0"
       r="1"
       gradientUnits="userSpaceOnUse"
       gradientTransform="matrix(-11.700186,31.247009,-54.50117,-20.407516,17.4186,10.6383)"><stop
         offset="0.06441"
         stop-color="#AE7FE2"
         id="stop8" /><stop
         offset="1"
         stop-color="#0078D4"
         id="stop9" /></radialGradient><linearGradient
       id="paint1_linear_2994_8373"
       x1="17.5119"
       y1="37.8685"
       x2="12.7513"
       y2="29.6347"
       gradientUnits="userSpaceOnUse"><stop
         offset="0"
         stop-color="#114A8B"
         id="stop10" /><stop
         offset="1"
         stop-color="#0078D4"
         stop-opacity="0"
         id="stop11" /></linearGradient><radialGradient
       id="paint2_radial_2994_8373"
       cx="0"
       cy="0"
       r="1"
       gradientUnits="userSpaceOnUse"
       gradientTransform="matrix(30.719797,-4.5183204,2.9846529,20.29248,10.4299,36.3511)"><stop
         offset="0.133928"
         stop-color="#D59DFF"
         id="stop12" /><stop
         offset="1"
         stop-color="#5E438F"
         id="stop13" /></radialGradient><linearGradient
       id="paint3_linear_2994_8373"
       x1="40.3566"
       y1="25.3768"
       x2="35.2552"
       y2="32.6916"
       gradientUnits="userSpaceOnUse"><stop
         offset="0"
         stop-color="#493474"
         id="stop14" /><stop
         offset="1"
         stop-color="#8C66BA"
         stop-opacity="0"
         id="stop15" /></linearGradient><radialGradient
       id="paint4_radial_2994_8373"
       cx="0"
       cy="0"
       r="1"
       gradientUnits="userSpaceOnUse"
       gradientTransform="matrix(-24.158302,-6.1255536,10.311796,-40.668239,41.0552,26.504)"><stop
         offset="0.0584996"
         stop-color="#50E6FF"
         id="stop16" /><stop
         offset="1"
         stop-color="#436DCD"
         id="stop17" /></radialGradient><linearGradient
       id="paint5_linear_2994_8373"
       x1="16.9758"
       y1="3.05655"
       x2="24.4868"
       y2="3.05655"
       gradientUnits="userSpaceOnUse"><stop
         offset="0"
         stop-color="#2D3F80"
         id="stop18" /><stop
         offset="1"
         stop-color="#436DCD"
         stop-opacity="0"
         id="stop19" /></linearGradient><radialGradient
       id="paint6_radial_2994_8373"
       cx="0"
       cy="0"
       r="1"
       gradientUnits="userSpaceOnUse"
       gradientTransform="translate(41.0552 26.504) rotate(-165.772) scale(24.9228 41.9552)"><stop
         offset="0.0584996"
         stop-color="#50E6FF"
         id="stop20" /><stop
         offset="1"
         stop-color="#436DCD"
         id="stop21" /></radialGradient></defs><rect
     width="256"
     height="256"
     fill="#242938"
     rx="60"
     id="rect1"
     x="0"
     y="0" /><g
     style="fill:none;stroke-width:1.12816"
     id="g1"
     transform="matrix(4.7274691,0,0,4.7274691,14.540742,14.53583)"><path
       d="m 20.0842,3.02588 -0.2247,0.13591 c -0.3574,0.2162 -0.6941,0.45793 -1.0083,0.72206 L 19.4993,3.42798 H 25 L 26,11 l -5,5 -5,3.4754 v 4.0075 c 0,2.799 1.4629,5.3945 3.8574,6.8439 L 25.1211,33.5129 14,40.0002 H 11.8551 L 7.85737,37.5804 C 5.46286,36.131 4,33.5355 4,30.7365 V 17.2606 C 4,14.4607 5.46379,11.8645 7.85952,10.4154 L 19.8595,3.15687 c 0.0744,-0.04498 0.1493,-0.08864 0.2247,-0.13099 z"
       fill="url(#paint0_radial_2994_8373)"
       id="path1"
       style="display:inline;fill:url(#paint0_radial_2994_8373);stroke-width:1.12816" /><path
       d="m 20.0842,3.02588 -0.2247,0.13591 c -0.3574,0.2162 -0.6941,0.45793 -1.0083,0.72206 L 19.4993,3.42798 H 25 L 26,11 l -5,5 -5,3.4754 v 4.0075 c 0,2.799 1.4629,5.3945 3.8574,6.8439 L 25.1211,33.5129 14,40.0002 H 11.8551 L 7.85737,37.5804 C 5.46286,36.131 4,33.5355 4,30.7365 V 17.2606 C 4,14.4607 5.46379,11.8645 7.85952,10.4154 L 19.8595,3.15687 c 0.0744,-0.04498 0.1493,-0.08864 0.2247,-0.13099 z"
       fill="url(#paint1_linear_2994_8373)"
       id="path2"
       style="display:inline;fill:url(#paint1_linear_2994_8373);stroke-width:1.12816" /><path
       d="m 32,19 v 4.4803 c 0,2.799 -1.4629,5.3945 -3.8574,6.8439 l -12,7.2636 c -2.4548,1.4859 -5.5091,1.5395 -8.0071,0.1609 l 11.7218,7.0953 c 2.5466,1.5415 5.7386,1.5415 8.2853,0 l 12,-7.2637 c 2.3945,-1.4494 3.8573,-4.0449 3.8573,-6.8439 V 27.5 l -1,-1.5 z"
       fill="url(#paint2_radial_2994_8373)"
       id="path3"
       style="display:inline;fill:url(#paint2_radial_2994_8373);stroke-width:1.12816" /><path
       d="m 32,19 v 4.4803 c 0,2.799 -1.4629,5.3945 -3.8574,6.8439 l -12,7.2636 c -2.4548,1.4859 -5.5091,1.5395 -8.0071,0.1609 l 11.7218,7.0953 c 2.5466,1.5415 5.7386,1.5415 8.2853,0 l 12,-7.2637 c 2.3945,-1.4494 3.8573,-4.0449 3.8573,-6.8439 V 27.5 l -1,-1.5 z"
       fill="url(#paint3_linear_2994_8373)"
       id="path4"
       style="display:inline;fill:url(#paint3_linear_2994_8373);stroke-width:1.12816" /><path
       d="m 40.1405,10.4153 -12,-7.25852 C 25.6738,1.66471 22.6021,1.61849 20.0979,3.01811 l -0.2384,0.1442 C 17.4638,4.61143 16,7.20757 16,10.0075 v 9.4839 l 3.8595,-2.3346 c 2.5456,-1.5397 5.7354,-1.5397 8.281,0 l 12,7.2585 c 2.3208,1.4039 3.7671,3.8841 3.8552,6.5832 C 43.9986,30.9113 44,30.824 44,30.7364 V 17.2605 c 0,-2.7999 -1.4638,-5.3961 -3.8595,-6.8452 z"
       fill="url(#paint4_radial_2994_8373)"
       id="path5"
       style="display:inline;fill:url(#paint4_radial_2994_8373);stroke-width:1.12816" /><path
       d="m 40.1405,10.4153 -12,-7.25852 C 25.6738,1.66471 22.6021,1.61849 20.0979,3.01811 l -0.2384,0.1442 C 17.4638,4.61143 16,7.20757 16,10.0075 v 9.4839 l 3.8595,-2.3346 c 2.5456,-1.5397 5.7354,-1.5397 8.281,0 l 12,7.2585 c 2.3208,1.4039 3.7671,3.8841 3.8552,6.5832 C 43.9986,30.9113 44,30.824 44,30.7364 V 17.2605 c 0,-2.7999 -1.4638,-5.3961 -3.8595,-6.8452 z"
       fill="url(#paint5_linear_2994_8373)"
       id="path6"
       style="display:inline;fill:url(#paint5_linear_2994_8373);stroke-width:1.12816" /></g></svg>
