<svg xmlns="http://www.w3.org/2000/svg" xml:space="preserve" width="48" height="48" fill="none" viewBox="0 0 256 256"><defs><radialGradient id="a" cx="0" cy="0" r="1" gradientTransform="matrix(-17.8738 -21.0872 19.954 -16.9132 59.436 31.087)" gradientUnits="userSpaceOnUse"><stop offset=".096" stop-color="#00AEFF"/><stop offset=".773" stop-color="#2253CE"/><stop offset="1" stop-color="#0736C4"/></radialGradient><radialGradient id="b" cx="0" cy="0" r="1" gradientTransform="matrix(15.9932 19.2335 -18.8795 15.6988 15.36 50.972)" gradientUnits="userSpaceOnUse"><stop stop-color="#FFB657"/><stop offset=".634" stop-color="#FF5F3D"/><stop offset=".923" stop-color="#C02B3C"/></radialGradient><radialGradient id="e" cx="0" cy="0" r="1" gradientTransform="matrix(-20.7375 57.8477 -70.6513 -25.3274 64.843 17.441)" gradientUnits="userSpaceOnUse"><stop offset=".066" stop-color="#8C48FF"/><stop offset=".5" stop-color="#F2598A"/><stop offset=".896" stop-color="#FFB152"/></radialGradient><linearGradient id="c" x1="17.679" x2="21.246" y1="10.667" y2="52.961" gradientUnits="userSpaceOnUse"><stop offset=".156" stop-color="#0D91E1"/><stop offset=".487" stop-color="#52B471"/><stop offset=".652" stop-color="#98BD42"/><stop offset=".937" stop-color="#FFC800"/></linearGradient><linearGradient id="d" x1="20.952" x2="22.899" y1="5.078" y2="51.21" gradientUnits="userSpaceOnUse"><stop stop-color="#3DCBFF"/><stop offset=".247" stop-color="#0588F7" stop-opacity="0"/></linearGradient><linearGradient id="f" x1="66.917" x2="66.891" y1="19.141" y2="31.703" gradientUnits="userSpaceOnUse"><stop offset=".058" stop-color="#F8ADFA"/><stop offset=".708" stop-color="#A86EDD" stop-opacity="0"/></linearGradient></defs><rect width="256" height="256" fill="#242938" rx="60"/><g stroke-width="1.846" clip-path="url(#clipPath25)" transform="matrix(2.8887 0 0 2.8887 22.571 15.84)"><path fill="url(#a)" d="M53.157 10.315a7.5 7.5 0 0 0-7.15-5.237h-2.472a7.5 7.5 0 0 0-7.373 6.126L32.49 30.918l1.102-3.64a7.5 7.5 0 0 1 7.178-5.325h11.48l6.584 2.303 3.5-2.292a7.51 7.51 0 0 1-7.15-5.248z"/><path fill="url(#b)" d="M20.615 62.808a7.5 7.5 0 0 0 7.16 5.27h4.867a7.5 7.5 0 0 0 7.499-7.394l.257-18.11-.987 3.286a7.5 7.5 0 0 1-7.183 5.343H20.75l-5.936-2.707-3.333 2.707a7.5 7.5 0 0 1 7.16 5.27z"/><path fill="url(#c)" d="M45.5 5.078H19.25c-7.5 0-12 9.672-15 19.344C.696 35.88-3.955 51.206 9.5 51.206h11.431a7.502 7.502 0 0 0 7.204-5.394c1.972-6.732 5.42-18.446 8.128-27.366 1.379-4.54 2.527-8.439 4.29-10.867.987-1.361 2.634-2.501 4.947-2.501Z"/><path fill="url(#d)" d="M45.5 5.078H19.25c-7.5 0-12 9.672-15 19.344C.696 35.88-3.955 51.206 9.5 51.206h11.431a7.502 7.502 0 0 0 7.204-5.394c1.972-6.732 5.42-18.446 8.128-27.366 1.379-4.54 2.527-8.439 4.29-10.867.987-1.361 2.634-2.501 4.947-2.501Z"/><path fill="url(#e)" d="M27.495 68.078h26.25c7.5 0 12-9.67 15-19.341 3.554-11.458 8.205-26.78-5.25-26.78H52.063a7.502 7.502 0 0 0-7.204 5.393c-1.972 6.731-5.419 18.443-8.128 27.361-1.378 4.54-2.526 8.438-4.289 10.866-.988 1.36-2.635 2.5-4.947 2.5z"/><path fill="url(#f)" d="M27.495 68.078h26.25c7.5 0 12-9.67 15-19.341 3.554-11.458 8.205-26.78-5.25-26.78H52.063a7.502 7.502 0 0 0-7.204 5.393c-1.972 6.731-5.419 18.443-8.128 27.361-1.378 4.54-2.526 8.438-4.289 10.866-.988 1.36-2.635 2.5-4.947 2.5z"/><rect width="48.375" height="21.375" x="24.125" y="51.203" fill="#000" rx="3.637"/><path fill="#fff" fill-rule="evenodd" d="M27.068 55.288v13.031h2.411v-9.388l2.643 5.206h1.607l2.585-5.21v9.392h2.488V55.288h-2.778l-3.02 6.046-3.002-6.046zm18.013 13.196c-1.433 0-2.55-.342-3.35-1.026-.794-.685-1.19-1.714-1.19-3.089h2.381c0 .652.187 1.162.562 1.53.38.368.91.552 1.588.552.606 0 1.071-.155 1.394-.465.329-.31.494-.8.494-1.472 0-.645-.2-1.113-.6-1.403-.394-.297-.908-.446-1.54-.446h-.784V60.71h.852c.568 0 1.02-.155 1.355-.465.336-.31.504-.72.504-1.23 0-.516-.152-.897-.455-1.142-.297-.246-.707-.368-1.23-.368-.575 0-1.02.161-1.336.484-.316.316-.475.752-.475 1.307H40.88c0-.871.181-1.588.543-2.15a3.371 3.371 0 0 1 1.5-1.258c.633-.284 1.343-.426 2.13-.426.73 0 1.404.12 2.024.358a3.34 3.34 0 0 1 1.49 1.094c.382.49.572 1.12.572 1.888 0 .781-.187 1.4-.562 1.859-.368.458-.865.781-1.49.968.69.142 1.261.465 1.713.968.458.497.687 1.198.687 2.101 0 1.227-.396 2.166-1.19 2.818-.788.645-1.86.968-3.215.968zm7.794-.64c.716.433 1.53.65 2.44.65.916 0 1.69-.181 2.323-.543a3.589 3.589 0 0 0 1.453-1.49c.329-.64.493-1.372.493-2.198 0-.859-.161-1.578-.484-2.16a3.219 3.219 0 0 0-1.316-1.326c-.549-.303-1.169-.455-1.86-.455-.58 0-1.09.094-1.529.28a4.064 4.064 0 0 0-1.278.867c.044-1.25.231-2.197.562-2.841.387-.749.935-1.123 1.645-1.123.44 0 .794.122 1.065.368.278.239.465.603.562 1.094h2.382c-.168-1.123-.594-1.985-1.278-2.585-.684-.607-1.595-.91-2.73-.91-.923 0-1.743.235-2.46.706-.716.465-1.278 1.185-1.684 2.16-.407.968-.61 2.21-.61 3.727 0 1.523.206 2.76.62 3.708.412.942.974 1.633 1.684 2.072zm.25-4.514c.172-.168.363-.321.573-.462a3.081 3.081 0 0 1 1.772-.532c.497 0 .884.174 1.162.523.277.342.416.82.416 1.433 0 .626-.145 1.145-.436 1.558-.284.414-.716.62-1.297.62a1.85 1.85 0 0 1-1.075-.358c-.335-.245-.61-.642-.823-1.191-.157-.422-.254-.953-.292-1.591zm9.78 4.738c.678.284 1.433.426 2.266.426.826 0 1.568-.165 2.227-.494.664-.33 1.19-.82 1.578-1.472.387-.658.58-1.481.58-2.469 0-.987-.183-1.784-.551-2.391-.362-.607-.836-1.049-1.423-1.326a4.28 4.28 0 0 0-1.888-.426c-.517 0-.965.084-1.346.251-.374.162-.658.352-.852.572l.232-2.982h4.85v-2.12h-6.854l-.552 7.019h2.217c.181-.226.41-.414.688-.562.277-.148.616-.223 1.016-.223.568 0 1.03.175 1.385.523.361.342.542.897.542 1.665 0 .833-.171 1.443-.513 1.83-.336.387-.781.581-1.336.581-.587 0-1.068-.164-1.443-.494-.374-.335-.561-.794-.561-1.374h-2.47c0 .87.198 1.597.592 2.178.4.574.939 1.004 1.616 1.288z" clip-rule="evenodd"/></g></svg>