<svg xmlns="http://www.w3.org/2000/svg" xml:space="preserve" id="Layer_1" width="48" height="48" x="0" y="0" version="1.1"><style id="style1" type="text/css">.st3,.st4{opacity:.1;enable-background:new}.st4{opacity:.2}</style><linearGradient id="SVGID_1_" x1="5.564" x2="26.403" y1="2105.324" y2="2141.42" gradientTransform="translate(0 -2096)" gradientUnits="userSpaceOnUse"><stop id="stop7" offset="0" stop-color="#18884f"/><stop id="stop8" offset=".5" stop-color="#117e43"/><stop id="stop9" offset="1" stop-color="#0b6631"/></linearGradient><g id="g11" fill="none" transform="scale(.1875)"><rect id="rect1-4" width="256" height="256" x="0" y="0" fill="#242938" rx="60"/></g><g id="g10" stroke-width="1.61" transform="matrix(.621 0 0 .621 4.5 6.984)"><path id="path1" fill="#185c37" stroke-width="1.61" d="M60.1 54.8H24.4c-1.5 0-2.7-1.2-2.7-2.7V36.5l13.7-6.8 17.1 6.8h7.6c1.5 0 2.7 1.2 2.7 2.7v12.9c0 1.5-1.2 2.7-2.7 2.7z"/><path id="path2" fill="#33c481" stroke-width="1.61" d="m42.2 18.3-16 5.7L8 18.3V2.7C8 1.2 9.2 0 10.7 0h28.9c1.5 0 2.7 1.2 2.7 2.7z"/><path id="path3" fill="#21a366" stroke-width="1.61" d="M8 18.3h41.8c1.5 0 2.7 1.2 2.7 2.7v15.6H10.7c-1.5 0-2.7-1.2-2.7-2.7Z"/><path id="path4" stroke-width="1.61" d="M21.7 46.8h8.7c1.3 0 2.4-.9 2.6-2.2V14.1c0-1.5-1.2-2.7-2.6-2.7H8v22.4c0 1.5 1.2 2.7 2.7 2.7h11z" class="st3"/><path id="path5" stroke-width="1.61" d="M30.4 45.7c2.1 0 3.8-1.7 3.8-3.8V14.1c0-2.1-1.7-3.8-3.8-3.8H8v23.6c0 1.5 1.2 2.7 2.7 2.7h11v9.1h8.7z" class="st4"/><path id="path6" stroke-width="1.61" d="M30.4 44.5c1.5 0 2.7-1.2 2.7-2.6V14.1c0-1.5-1.2-2.7-2.6-2.7H8v22.4c0 1.5 1.2 2.7 2.7 2.7h11v8z" class="st4"/><path id="path7" stroke-width="1.61" d="M29.3 44.5c1.5 0 2.7-1.2 2.7-2.6V14.1c0-1.5-1.2-2.7-2.6-2.7H8v22.4c0 1.5 1.2 2.7 2.7 2.7h11v8z" class="st3"/><path id="path9" fill="url(#SVGID_1_)" stroke-width="1.61" d="M2.7 11.4h26.6c1.5 0 2.7 1.2 2.7 2.7v26.6c0 1.5-1.2 2.7-2.7 2.7H2.7c-1.5 0-2.7-1.2-2.7-2.7V14.1c0-1.5 1.2-2.7 2.7-2.7z"/><path id="path10" fill="#fff" stroke-width="1.61" d="M16.5 18.5c1.7-.1 3.4.4 4.7 1.4 1.1 1.1 1.7 2.6 1.6 4.1 0 1.1-.3 2.1-.8 3.1-.6.9-1.4 1.6-2.3 2.1-1.1.5-2.3.8-3.5.7h-3.3v6.3H9.5V18.5ZM13 27.2h2.9c.9.1 1.8-.2 2.6-.8.6-.6.9-1.4.9-2.3 0-2-1.1-2.9-3.3-2.9h-3l-.1 6z"/></g></svg>