<svg xmlns="http://www.w3.org/2000/svg" xmlns:xlink="http://www.w3.org/1999/xlink" xml:space="preserve" width="48" height="48" fill="none" viewBox="0 0 256 256"><defs><linearGradient id="a" x1="619.92" x2="619.92" y1="0" y2="371.443" gradientTransform="scale(.5896 1.696)" gradientUnits="userSpaceOnUse"><stop offset="0%" stop-color="#EBBB14"/><stop offset="100%" stop-color="#B25400"/></linearGradient><linearGradient id="d" x1="347.568" x2="347.568" y1="106.829" y2="428.679" gradientTransform="scale(.6804 1.4696)" gradientUnits="userSpaceOnUse"><stop offset="0%" stop-color="#F9E583"/><stop offset="100%" stop-color="#DE9800"/></linearGradient><linearGradient id="e" x1="131.325" x2="131.325" y1="262.65" y2="525.3" gradientTransform="scale(.8338 1.1993)" gradientUnits="userSpaceOnUse"><stop offset="0%" stop-color="#F9E68B"/><stop offset="100%" stop-color="#F3CD32"/></linearGradient><filter id="c" width="1.311" height="1.123" x="-.11" y="-.051" filterUnits="objectBoundingBox"><feOffset dx="20" dy="10" in="SourceAlpha" result="shadowOffsetOuter1"/><feGaussianBlur in="shadowOffsetOuter1" result="shadowBlurOuter1" stdDeviation="10"/><feColorMatrix in="shadowBlurOuter1" values="0 0 0 0 0 0 0 0 0 0 0 0 0 0 0 0 0 0 0.0530211976 0"/></filter><path id="b" d="M346 604v26H153c-14.36 0-26-11.64-26-26V183c0-14.36 11.64-26 26-26h167c14.36 0 26 11.64 26 26v421Z"/></defs><rect width="256" height="256" fill="#242938" rx="60"/><g fill-rule="evenodd" stroke-width="18.532" transform="matrix(.2878 0 0 .2878 59.64 37.333)"><rect width="219" height="630" x="256" fill="url(#a)" rx="26"/><use xlink:href="#b" fill="#000" stroke-width="19.732" filter="url(#c)"/><use xlink:href="#b" fill="url(#d)"/><path fill="url(#e)" d="M219 604v26H26c-14.36 0-26-11.64-26-26V341c0-14.36 11.64-26 26-26h167c14.36 0 26 11.64 26 26z"/></g></svg>