<svg xmlns="http://www.w3.org/2000/svg" xmlns:xlink="http://www.w3.org/1999/xlink" xml:space="preserve" id="svg2" width="48" height="48" version="1.1" viewBox="0 0 25.368 25.368"><defs id="defs2"><linearGradient id="a"><stop id="stop1" offset="0" stop-color="#e93c17"/><stop id="stop2" offset="1" stop-color="#ca153e"/></linearGradient><linearGradient xlink:href="#a" id="d" x1="16.912" x2="0" y1="0" y2="16.912" gradientUnits="userSpaceOnUse"/><linearGradient xlink:href="#a" id="c" x1="16.912" x2=".529" y2="16.912" gradientUnits="userSpaceOnUse"/><linearGradient xlink:href="#a" id="b" x1="32" x2="0" y1=".001" y2="32.001" gradientTransform="translate(-.07) scale(.5285)" gradientUnits="userSpaceOnUse"/><linearGradient xlink:href="#a" id="linearGradient6" x1="25.368" x2="0" y1="0" y2="25.368" gradientUnits="userSpaceOnUse"/></defs><g id="g2" transform="scale(1.5)"><path id="background" fill="#f4f2ed" fill-opacity="1" stroke-width=".046" d="M2.114 1.057c-.595 0-1.057.462-1.057 1.057v5.285h3.171V4.228h2.114v2.114h2.114V2.114h2.114v3.171h2.114v2.114h3.171V2.114c0-.595-.462-1.057-1.057-1.057zM1.057 9.513v5.285c0 .595.462 1.057 1.057 1.057h12.684c.595 0 1.057-.462 1.057-1.057V9.513h-3.171v2.114H10.57v3.171H8.456V10.57H6.342v2.114H4.228V9.513Z" display="inline" paint-order="markers fill stroke"/><path id="wave" fill="url(#d)" d="M1.057 7.4v2.113h3.171v3.171h2.114V10.57h2.114v4.228h2.114v-3.17h2.114V9.512h3.171V7.4h-3.171V5.285H10.57V2.114H8.456v4.228H6.342V4.228H4.228V7.4z" display="inline"/><rect id="rect3" width="23.782" height="23.782" x=".793" y=".793" fill="none" fill-opacity="1" stroke="url(#linearGradient6)" stroke-dasharray="none" stroke-width="1.585" display="inline" rx="5.154" ry="5.154" transform="scale(.6667)"/></g></svg>